<svg id="Capa_1" data-name="Capa 1" xmlns="http://www.w3.org/2000/svg" viewBox="0 0 1200 200"><defs><style>.cls-1{fill:#1d1d1b;}.cls-2{fill:#29235c;}.cls-3{fill:#f39200;}.cls-4{fill:#e6007e;}.cls-5{fill:#36a9e1;}</style></defs><title>grafico</title><path class="cls-1" d="M46.28,55.6A52.65,52.65,0,0,1,71.66,69.07c6,5.88,10,13.92,17.43,18.34,14.87,8.88,33.24-.1,46.57-7.69l-3.76-2.16c-.35,8.82,8.45,14,16.46,13.89,5-.06,9.53-2.33,13.54-5.11,4.39-3,12.81-13.3,18.33-9.87,1.8,1.12,2.87,2.57,5,3.29a20.87,20.87,0,0,0,8.14.6c6.6-.49,11.64-.42,17.6,2.82,8.58,4.64,16.2,11.26,26.56,9.8,3.17-.45,1.82-5.27-1.33-4.82-9.33,1.31-17.19-6.8-25.06-10.5a26.57,26.57,0,0,0-11.43-2.79c-2.65,0-5.27.52-7.91.6-4,.12-6-1-9-3.37-7.71-6.18-15.9,4.24-21.82,8.69-4.3,3.24-9.16,6.24-14.74,5.51-4.74-.61-9.62-3.45-9.41-8.74a2.52,2.52,0,0,0-3.76-2.16c-14.77,8.41-34.46,17.44-47.89,2C80.19,71.67,76.05,65.66,69.84,61A57.77,57.77,0,0,0,47.61,50.78c-3.13-.7-4.47,4.12-1.33,4.82Z"/><path class="cls-1" d="M347.69,139Q398.6,112.2,448.33,83.28c2.78-1.62.27-5.94-2.52-4.32q-49.72,28.92-100.65,55.69c-2.85,1.5-.32,5.81,2.53,4.32Z"/><path class="cls-1" d="M552.92,84.2c6.44,11.86,13.61,24,26.51,29.61,13.33,5.83,28.46,4.17,42.47,2.39,3.15-.4,3.19-5.41,0-5-12.66,1.61-26.38,3.35-38.65-1.22-12.92-4.81-19.78-16.82-26-28.3-1.53-2.83-5.85-.31-4.31,2.52Z"/><path class="cls-1" d="M681.11,46.38A430.07,430.07,0,0,0,571.48,75.15c-1.65.68-2.6,2.76-1.11,4.18,11,10.52,26.55,12.52,38.76,21,12.4,8.63,13.38,26.45,26.4,34.23,6.23,3.72,15.11,3.47,20.36,8.71,6.78,6.77-.06,17.33-7.25,20.35-10,4.2-21.76.64-31.91-1.17s-20.58-3.46-30.92-4.87q-35.23-4.8-70.79-6.34c-3.22-.14-3.21,4.86,0,5,23.88,1,47.72,3.14,71.4,6.43,11.63,1.61,23.21,3.53,34.76,5.66,9.55,1.75,20,3.82,29.33-.05,12.7-5.29,18.94-23.88,4.86-31.51-7.26-3.94-16-3.77-21.83-10.33-5.56-6.29-7.91-14.75-12.75-21.54-11.42-16-33.26-16.07-46.88-29.11L572.81,80a425.29,425.29,0,0,1,108.3-28.6c3.15-.39,3.19-5.4,0-5Z"/><path class="cls-1" d="M444.65,172.38c-10.47-2.82-24.18-8.14-20.09-21.74,3.29-10.94,14.3-19.51,22.53-26.83,8-7.12,16.31-14,23.43-22.08a84.56,84.56,0,0,0,9.16-12.31c2-3.38,4-6.85,1.07-10.23-2.1-2.45-5.62,1.11-3.54,3.54,1.69,2-9,14-10.23,15.46a156.63,156.63,0,0,1-12.18,12.13c-8.75,7.94-18.07,15.37-26,24.2-6.59,7.37-13,17.86-8.59,27.93,4,9,14.3,12.39,23.07,14.76,3.11.84,4.44-4,1.33-4.83Z"/><path class="cls-1" d="M398.45,58.17a64.21,64.21,0,0,0-38,24.63c-10.13,13.63-15.5,30.18-26.17,43.46-2,2.48,1.51,6,3.53,3.53,9.63-12,15.14-26.32,23.34-39.19,9-14.13,22.19-24,38.66-27.61,3.14-.68,1.81-5.5-1.33-4.82Z"/><path class="cls-1" d="M290.3,150.25c-23.41,6-47.59,3.4-71.28.67-3.19-.37-3.16,4.64,0,5,24.16,2.78,48.74,5.3,72.61-.85,3.11-.8,1.79-5.62-1.33-4.82Z"/><path class="cls-1" d="M176.77,145.23l-1-1a2.5,2.5,0,0,0-3.54,3.54l1,1a2.5,2.5,0,0,0,3.54-3.54Z"/><path class="cls-1" d="M314.72,31.71l38.95-7.26c3.16-.58,1.82-5.4-1.33-4.82l-38.95,7.26c-3.16.59-1.82,5.41,1.33,4.82Z"/><path class="cls-1" d="M756.73,26.58a185.38,185.38,0,0,0,5.72,96.92l3.67-2.83a353.69,353.69,0,0,0-77.56-25.55c-3.14-.65-4.49,4.17-1.33,4.82a348,348,0,0,1,76.37,25c1.81.84,4.43-.57,3.67-2.82a180.29,180.29,0,0,1-5.72-94.26c.66-3.14-4.16-4.49-4.82-1.33Z"/><path class="cls-2" d="M175.87,30.49c8,16,25.87,22.21,42.25,25.75,24.23,5.25,48.84,9.12,73.23,13.61l-1.11-4.17C265.6,85.63,233.75,92,205,103.7c-11.73,4.79-28.8,10.68-34.62,23-2.46,5.23-1.18,9.74,2.17,14.1,1.1,1.42,4.91,4.41,1.44,6.08-.9.43-4.08-.21-5-.29a83.86,83.86,0,0,1-15.37-3.07c-3.09-.89-4.42,3.93-1.33,4.83a91.62,91.62,0,0,0,13.09,2.81c3.57.49,8.32,1.6,11.8.11,5.36-2.29,3.83-7.68,1-11.38-3-3.88-5.64-7-2.86-11.93,2-3.6,5.39-6.35,8.83-8.53a142.8,142.8,0,0,1,22.89-11.23c29.43-11.92,61.5-18.6,86.7-39a2.52,2.52,0,0,0-1.1-4.18c-23.05-4.25-46.15-8.25-69.15-12.77C207.2,49.05,188.22,44.12,180.19,28c-1.44-2.88-5.75-.35-4.32,2.52Z"/><path class="cls-2" d="M67.91,95c-.83,12.84,5.24,24.94,14.67,33.43,10.57,9.53,24.63,13.7,38.52,15.16,33.43,3.54,67.34-5.47,99.48-13.52,3.12-.78,1.79-5.6-1.33-4.82-29.23,7.32-59.08,14.91-89.45,13.93-13.66-.44-28-3-39.44-10.92C79.52,120.76,72,108.46,72.91,95c.21-3.21-4.79-3.2-5,0Z"/><path class="cls-2" d="M387,69.6c35.21,3.71,70.2-2.84,104.65-9.47,3.16-.6,1.82-5.42-1.33-4.82-34,6.55-68.53,13-103.32,9.29-3.19-.34-3.17,4.66,0,5Z"/><path class="cls-2" d="M558,54.73c16.52,10.64,33.34,21.21,52.52,26.32,3.11.83,4.44-4,1.33-4.82-18.77-5-35.16-15.41-51.33-25.82-2.71-1.75-5.22,2.58-2.52,4.32Z"/><path class="cls-2" d="M624.18,106.85c3.32,7.17-.86,15.11-6.74,19.46s-13.23,6.07-20.23,7.77c-3.13.76-1.8,5.59,1.33,4.82,9.26-2.25,19.54-4.86,26.05-12.38,5.41-6.23,7.43-14.58,3.9-22.19-1.35-2.92-5.66-.38-4.31,2.52Z"/><path class="cls-2" d="M536.7,149.55c-28.27,14.8-60.9,0-90.75,1.87-3.2.19-3.22,5.2,0,5,31-1.89,63.81,12.87,93.27-2.55,2.85-1.49.33-5.81-2.52-4.32Z"/><path class="cls-2" d="M435,163.05c14.6,13.07,36.62,13.67,55.18,13.66,23.36,0,46.54-3.46,69.52-7.34,3.16-.53,1.82-5.35-1.33-4.82-21.27,3.59-42.69,6.78-64.3,7.13-18,.3-41.21.66-55.54-12.17-2.39-2.13-5.94,1.39-3.53,3.54Z"/><path class="cls-2" d="M658.88,164c11.17-.34,18.15-9.77,23.61-18.44,1.71-2.73-2.61-5.24-4.32-2.52-4.4,7-10.13,15.68-19.29,16-3.21.1-3.23,5.1,0,5Z"/><path class="cls-2" d="M708.69,113A141.4,141.4,0,0,0,689,50.83c-1.65-2.76-6-.25-4.32,2.52a135.81,135.81,0,0,1,19,59.64c.24,3.19,5.25,3.21,5,0Z"/><path class="cls-2" d="M631,9.7c-25.15,3.94-50.33,7.87-75.7,10.17-12.11,1.1-24.26,1.83-36.42,2-10.41.15-20.9-.65-31.29.19-8.52.68-17.18,2.6-24.11,7.85C456.19,35.47,452,43.81,450,52.61c-3.58,15.51-3.63,35.79,7.18,48.61,12.55,14.89,34.67,12,51.23,6.94A113.1,113.1,0,0,0,537,94.79c5.26-3.44,16.17-9.66,12.27-17.53-3.38-6.81-15-5.38-21.08-5.37a221.73,221.73,0,0,0-30.46,2.17A228.77,228.77,0,0,0,439,90.58a224.71,224.71,0,0,0-30.83,16.21q-7.37,4.65-14.36,9.88c-1.94,1.45-3.86,2.94-5.76,4.45-3.12,2.5-4.77,2.61-8.79,3a394,394,0,0,0-78.75,15.47,2.53,2.53,0,0,0-1.5,3.67c3.42,5.12,10.6-.83,6.83-5.63-2.44-3.11-7.85-3.73-11.37-4.61a182,182,0,0,0-18.24-3.59,187.78,187.78,0,0,0-70.57,3.3l1.33,4.82a34.14,34.14,0,0,0,21.21-21c1.1-3-3.73-4.34-4.82-1.33a28.76,28.76,0,0,1-17.72,17.46c-3,1-1.83,5.58,1.33,4.82a182.38,182.38,0,0,1,48.21-5,178.4,178.4,0,0,1,24.3,2.41q5.51.93,10.93,2.21c1.82.42,3.62.88,5.42,1.36,1.22.32,6.85,1.25,7.48,2.2l-1.49,3.67a388.73,388.73,0,0,1,63.1-13.71q7.14-.93,14.32-1.58c2.13-.2,5,0,7-.6,1.59-.46,2.72-1.76,4-2.8a213.22,213.22,0,0,1,23.23-16.34A222.64,222.64,0,0,1,518.26,77.13c4.14-.2,8.3-.27,12.45-.23,2.21,0,4.43.07,6.64.17a24,24,0,0,1,3,.29c2,.33,4.5,2.33,4.26,4.7-.33,3.3-9,7.71-11.61,9.34a110.38,110.38,0,0,1-12.88,7c-15.1,6.91-38,14.26-53.5,4.53C451.6,93.42,451.32,71,454.49,55.45c1.78-8.72,5.58-17.37,13.26-22.44,7.42-4.91,16.57-6,25.26-6.22,10.6-.29,21.21.27,31.82,0,12.16-.35,24.3-1.23,36.4-2.44,23.82-2.39,47.49-6.09,71.13-9.78,3.17-.5,1.83-5.32-1.33-4.83Z"/><path class="cls-3" d="M126.52,44.88l23.93,45.71c3.74,7.15,7.89,14.23,3.17,22-3.48,5.72-9.51,9.64-15.07,13.09a2.55,2.55,0,0,0-.51,3.93c16.9,20,35.15,41,61.1,48.92a85,85,0,0,0,71.8-10.84c2.65-1.79.15-6.13-2.52-4.31A80.12,80.12,0,0,1,199,173.22c-24.3-7.94-41.47-28.27-57.41-47.17l-.51,3.93c11.8-7.33,24.29-18.09,18-33.31-3.73-9-9-17.56-13.51-26.19L130.84,42.35c-1.49-2.85-5.81-.33-4.32,2.53Z"/><path class="cls-3" d="M497,14.88c51.35-.7,98.53,22.64,143.91,43.95,5.79,2.71,11.67,5.29,17.39,8.16,7.78,3.91-2.33,13.34-5.47,17.42-3.62,4.7-7.75,9.3-10.9,14.32-2.29,3.65-3.7,8.08-1.46,12.11,1.8,3.22,5.42,4.82,8.72,6,5.67,2.07,11.51,3.76,17.24,5.63,3,1,6,1.85,8.9,2.9,4.18,1.49,6.31,3.49,4.92,8.21-1.6,5.4-5.72,10.41-9.77,14.17-21.64,20.13-53.46,14.57-79.67,9.43-3.15-.62-4.49,4.2-1.33,4.82,25.06,4.92,52.8,9.81,75.92-4.23,8.68-5.26,16.26-13.15,19.67-22.86C689.55,122.16,675,120,666,117.1c-5.83-1.9-13.22-3.08-18.46-6.37-7.94-5,2.93-15.11,6.6-19.87,4.76-6.17,19.91-19.85,8.93-27-5.39-3.51-12-5.78-17.88-8.51Q635,50.55,624.84,45.79C612.45,40,600,34.42,587.31,29.36,558.51,17.87,528.23,9.46,497,9.88c-3.21,0-3.22,5,0,5Z"/><path class="cls-3" d="M448,23.1a104.76,104.76,0,0,0-74.7,23.72c-9.37,7.85-17.82,18.46-19.72,30.86-1.8,11.83,3.31,22.81,11.56,31.09,9,9,20.63,15,32.24,19.83a160.36,160.36,0,0,0,42.91,11c12.48,1.47,36.61,5.72,31.41,24.13-4.76,16.82-24.74,17.91-38.95,15.82-35.76-5.28-71.26-16.67-104.4-30.9-2.92-1.25-5.47,3.05-2.52,4.32A469.66,469.66,0,0,0,417,181.72c13.76,2.82,29.4,6.54,43,1,9.89-4,18.49-14.3,17.14-25.5-1.49-12.25-13.63-18.77-24.57-20.93-7.65-1.5-15.48-1.87-23.15-3.31a152.32,152.32,0,0,1-22.4-6c-24.07-8.44-61.58-28.85-44.53-59.85,7.72-14.05,22.26-24.17,36.61-30.6A100.72,100.72,0,0,1,448,28.1c3.21.25,3.2-4.76,0-5Z"/><path class="cls-3" d="M283.9,57.08a155.27,155.27,0,0,1-60.58,24.44c-3.16.55-1.82,5.37,1.33,4.82a158.65,158.65,0,0,0,61.77-25c2.65-1.79.15-6.12-2.52-4.31Z"/><path class="cls-3" d="M189.28,85.37a456.46,456.46,0,0,1-51.91,10.46c-3.17.44-1.82,5.26,1.33,4.82a456.46,456.46,0,0,0,51.91-10.46c3.11-.82,1.79-5.64-1.33-4.82Z"/><path class="cls-3" d="M98.9,100.77a30.65,30.65,0,0,1-12.15,12.09c-2.83,1.54-.31,5.86,2.52,4.31a35.38,35.38,0,0,0,14-13.87c1.57-2.82-2.75-5.34-4.32-2.53Z"/><path class="cls-3" d="M77.41,128c.23,5.76-3.2,11.28-2.24,17,.92,5.52,5.57,7.75,10.06,10.16A318.22,318.22,0,0,0,126,173.4c3,1.1,4.34-3.73,1.33-4.83a306,306,0,0,1-34.66-15.11c-4.48-2.3-12.54-4.75-12.59-10.67,0-5,2.57-9.66,2.37-14.77-.13-3.21-5.13-3.23-5,0Z"/><path class="cls-3" d="M367,167.36Q491.24,181,615.89,190c3.21.23,3.2-4.77,0-5Q491.25,176,367,162.36c-3.2-.35-3.17,4.65,0,5Z"/><path class="cls-3" d="M748.19,161.61a176.89,176.89,0,0,1,6.28-18.92c1.19-3-3.65-4.29-4.82-1.33a176.89,176.89,0,0,0-6.28,18.92c-.84,3.11,4,4.43,4.82,1.33Z"/><path class="cls-3" d="M770.91,102.26a183.52,183.52,0,0,0-16.84-53.48c-1.42-2.88-5.74-.35-4.32,2.53a179.09,179.09,0,0,1,16.34,52.28c.48,3.17,5.3,1.83,4.82-1.33Z"/><path class="cls-3" d="M747.64,39.67l-18.95-5.16c-3.11-.85-4.44,4-1.33,4.82l18.95,5.16c3.11.84,4.44-4,1.33-4.82Z"/><path class="cls-3" d="M641.45,37C620.67,48.7,596.7,56.79,572.73,51.8c-3.14-.65-4.48,4.17-1.33,4.83C596.75,61.89,622,53.71,644,41.34c2.81-1.58.29-5.9-2.52-4.32Z"/><path class="cls-3" d="M401,34.52a161.18,161.18,0,0,1-73.31-9c-3-1.11-4.32,3.72-1.32,4.82A164.28,164.28,0,0,0,401,39.52c3.17-.34,3.2-5.35,0-5Z"/><path class="cls-3" d="M242.31-.54l-29,5.16c-3.16.57-1.82,5.38,1.33,4.82l29-5.16c3.16-.56,1.82-5.38-1.33-4.82Z"/><path class="cls-3" d="M151.73,2.69A36,36,0,0,1,120,24.46c-3.21.1-3.22,5.11,0,5A40.86,40.86,0,0,0,156.05,5.22c1.27-2.93-3-5.47-4.32-2.53Z"/><path class="cls-3" d="M77.2,39.31C60.28,51.55,53.39,71.63,47.43,90.79c-1,3.07,3.87,4.39,4.82,1.32C57.77,74.39,64,55,79.73,43.63c2.58-1.87.09-6.21-2.53-4.32Z"/><path class="cls-3" d="M57.09,133.88A156.11,156.11,0,0,0,119,181.62c2.92,1.25,5.47-3.06,2.52-4.32a153,153,0,0,1-60.86-47c-2-2.54-5.49,1-3.54,3.54Z"/><path class="cls-3" d="M373.08,199.33C443.45,193,513,180.51,583,170.72c35.72-5,71.57-9.26,107.57-11.6,14.73-1,32.39-3.27,45.36,5.47,5.59,3.76,9.37,10,16.3,11.59a19.58,19.58,0,0,0,15.89-3.93c11.47-8.75,12.53-25,11.13-38.19a117.08,117.08,0,0,0-16.72-48.95c-1.68-2.74-6-.23-4.32,2.52A111.65,111.65,0,0,1,774,132.31c1.47,12.05,1.68,28.28-9.3,36.21-3.35,2.42-7.82,3.84-11.92,2.68-3.94-1.11-6.72-4.42-9.61-7.09a37.92,37.92,0,0,0-15.78-8.73c-13.72-3.79-28.74-1.85-42.7-.86C618.47,159.19,552.9,170.17,487.28,180c-37.95,5.66-76,10.9-114.2,14.36-3.18.28-3.21,5.28,0,5Z"/><path class="cls-3" d="M548.19,59c-25.2,7.25-50.43,14.52-76.12,19.88C447.59,84,422.88,86.42,398,88.73c-23.84,2.21-47.88,4.7-70.95,11.43a213.5,213.5,0,0,0-32,12.73,89.8,89.8,0,0,1-17.92,6.65c-5.28,1.27-10.62,2.31-15.3,5.22-4.94,3.07-8.61,7.69-13.07,11.36a27.87,27.87,0,0,1-15.5,6.32c-10.68.9-21.65-3.68-27.73-12.65-1.79-2.65-6.13-.15-4.31,2.52,9.72,14.34,30.09,19.6,45.46,11.28,4.16-2.24,7.5-5.59,10.88-8.82A35.82,35.82,0,0,1,275,125.15c12.19-2.92,22.57-8.39,34-13.29,47.53-20.36,101.18-16.57,151.23-25.6,30.24-5.45,59.8-14,89.29-22.45,3.09-.89,1.78-5.71-1.33-4.82Z"/><path class="cls-4" d="M204,38.59c6,33.2,18.6,66.63,38.55,94,8.85,12.15,19.94,23.34,34,29.27,12.79,5.4,28.31,5.34,37.91-5.91,11.66-13.67,16.53-33.8,17.11-51.36h-5c1.15,11.62,2.44,24,9.67,33.59,6.33,8.44,15.91,13,26.45,10.9,11.77-2.31,22.78-10.56,32.17-17.61a189.21,189.21,0,0,0,28.41-26.29L419,103.45c-.2,8.93,1.05,22.26,11.16,25.57,6.48,2.12,13.45-1.33,19.42-3.65A218.84,218.84,0,0,0,472.22,115c2.84-1.5.32-5.82-2.53-4.32-5.86,3.09-11.84,6-18,8.47-5,2.07-10.9,5.12-16.38,5.43-10.69.63-11.5-13.45-11.33-21.14.05-2.08-2.82-3.4-4.27-1.76-13.7,15.55-30.47,30.39-49.29,39.44-10.4,5-21.21,4.75-29.07-4.46-7.52-8.81-8.71-21-9.8-32-.32-3.15-4.9-3.28-5,0-.51,15.42-4.59,31.64-13.26,44.59-9.3,13.91-25.65,13.28-39.19,6C249,141.68,233.78,112.35,223.3,87a243.92,243.92,0,0,1-14.46-49.72c-.57-3.16-5.38-1.82-4.82,1.33Z"/><path class="cls-4" d="M574.33,46.44c28.58,7.47,58.18,6.66,87.45,7.91,15.21.65,30.45,1.89,45.31,5.36,13.15,3.06,26.42,8.63,25,24.53-.61,6.81-3.17,13.47-5.46,19.86a153.69,153.69,0,0,1-8.44,19.66C711.7,136,702.81,147,690.38,153.57a45.16,45.16,0,0,1-18.24,5.34,29.42,29.42,0,0,1-10-.77c-5-1.51-5.24-5.15-7-9.32-3.7-9-13.31-11-22.1-11.59-7.22-.5-14.28-.52-21.35-2.38a82.22,82.22,0,0,1-20.05-8.45c-13.23-7.59-24.73-17.76-36-27.93-2.38-2.16-5.93,1.37-3.53,3.53,20.32,18.34,43,38,71.62,39.79,6.09.39,12.45.05,18.35,1.87a13.26,13.26,0,0,1,7,4.49c2.11,2.83,2.31,6.54,4.08,9.55,6,10.11,24.52,6.43,33.32,3.07C713.62,150.43,726.72,122,734.62,96c3.59-11.81,4.35-25-6.53-33.23s-27.25-9.81-40.39-11.41c-37.27-4.52-75.4-.12-112-9.7-3.12-.82-4.45,4-1.33,4.82Z"/><path class="cls-4" d="M376.67,43.55A603,603,0,0,0,261,30.45c-3.22-.05-3.22,4.95,0,5A596.48,596.48,0,0,1,375.34,48.37c3.14.67,4.48-4.15,1.33-4.82Z"/><path class="cls-4" d="M119.88,63.76a25.34,25.34,0,0,1-18.62,14.39c-3.15.59-1.82,5.41,1.33,4.83a30,30,0,0,0,21.61-16.7c1.36-2.9-3-5.44-4.32-2.52Z"/><path class="cls-4" d="M50.19,100.63c23.47,40.44,69.06,65.92,115.8,64.68,3.21-.09,3.23-5.09,0-5-45,1.2-88.86-23.24-111.48-62.2-1.62-2.78-5.94-.27-4.32,2.52Z"/><path class="cls-4" d="M176.48,189.3A28.33,28.33,0,0,1,150,208.65c-3.22,0-3.23,5,0,5a33.47,33.47,0,0,0,31.3-23c1-3.06-3.82-4.38-4.82-1.33Z"/><polygon class="cls-4" points="301 81 274.89 76.11 256.06 94.85 252.64 68.51 229 56.39 253 45 257.22 18.77 275.47 38.08 301.71 33.98 289 57.3 301 81"/><polygon class="cls-5" points="673 159 658.56 137.25 632.45 136.81 648.68 116.35 641.03 91.39 665.5 100.5 686.88 85.51 685.77 111.6 706.64 127.3 681.48 134.31 673 159"/></svg>